#!OML:ASF H:\Pregnant\Project 1\Capture day 1\Session 1\femalepreg.ASF
:FULLY-SPECIFIED
:DEGREES
254
root 3.6012 15.5777 31.2922 31.7959 -85.4637 39.5131
lowerback 10.2508 4.28255 3.28535
upperback 8.38082 5.27185 4.46248
thorax 2.91498 2.4381 2.3984
lowerneck -13.5843 8.62711 12.0101
upperneck 25.8752 7.61307 1.98867
head 11.1278 4.6394 -0.242439
rclavicle -1.08139e-013 -4.19436e-014
rhumerus -19.5175 60.1733 -82.0294
rradius 87.7854
rwrist -53.3567
rhand 32.4153 -12.1968
rfingers 7.12502
rthumb 55.8643 -29.6913
lclavicle -1.08139e-013 -4.19436e-014
lhumerus -40.9961 -11.3313 70.8953
lradius 40.0926
lwrist 57.7375
lhand -1.90265 0.0153768
lfingers 7.12502
lthumb 23.7668 28.5655
rfemur -96.0115 4.35663 -0.486095
rtibia 28.1316
rfoot 0.501376 -19.1242
rtoes 7.80319
lfemur 0 0 0
ltibia 0
lfoot 0 0
ltoes 0
255
root 3.60232 15.5795 31.2923 31.2131 -85.4881 40.0357
lowerback 10.1023 4.27535 3.24095
upperback 8.36616 5.25601 4.46561
thorax 2.97569 2.42989 2.43725
lowerneck -13.5655 8.60632 11.965
upperneck 25.8425 7.60528 1.98189
head 11.1084 4.6308 -0.240794
rclavicle 6.99722e-014 -3.33958e-014
rhumerus -19.4437 60.2044 -82.004
rradius 87.7435
rwrist -53.4333
rhand 32.3329 -12.1841
rfingers 7.12502
rthumb 55.7912 -29.7346
lclavicle 6.99722e-014 -3.33958e-014
lhumerus -40.976 -11.477 71.0097
lradius 40.1
lwrist 57.7778
lhand -1.88991 0.0491733
lfingers 7.12502
lthumb 23.779 28.5978
rfemur -95.9672 4.37399 -0.510243
rtibia 28.1584
rfoot 0.478382 -19.1265
rtoes 7.84109
lfemur 0 0 0
ltibia 0
lfoot 0 0
ltoes 0
256
root 3.60355 15.5818 31.2922 30.655 -85.5116 40.527
lowerback 9.93722 4.26989 3.19801
upperback 8.35105 5.24207 4.46754
thorax 3.04532 2.4228 2.47509
lowerneck -13.5511 8.5816 11.9299
upperneck 25.822 7.58817 1.97408
head 11.0947 4.61903 -0.241956
rclavicle -3.49861e-014 -4.63168e-014
rhumerus -19.3621 60.2177 -81.9739
rradius 87.7041
rwrist -53.4845
rhand 32.1972 -12.1835
rfingers 7.12502
rthumb 55.6707 -29.8256
lclavicle -3.49861e-014 -4.63168e-014
lhumerus -40.9503 -11.63 71.1229
lradius 40.1093
lwrist 57.8281
lhand -1.91132 0.0960355
lfingers 7.12502
lthumb 23.7584 28.6473
rfemur -95.9168 4.39584 -0.530744
rtibia 28.1868
rfoot 0.446282 -19.1311
rtoes 7.88843
lfemur 0 0 0
ltibia 0
lfoot 0 0
ltoes 0
257
root 3.60457 15.5842 31.2924 30.0696 -85.5326 41.0309
lowerback 9.7582 4.2682 3.15699
upperback 8.33771 5.2325 4.46894
thorax 3.1247 2.41798 2.51217
lowerneck -13.5461 8.54781 11.9079
upperneck 25.8104 7.55108 1.97326
head 11.0859 4.60034 -0.245014
rclavicle 4.13472e-014 2.70347e-014
rhumerus -19.2876 60.2052 -81.9365
rradius 87.6751
rwrist -53.506
rhand 31.8632 -12.1118
rfingers 7.12502
rthumb 55.3738 -29.9766
lclavicle 4.13472e-014 2.70347e-014
lhumerus -40.9151 -11.7994 71.2404
lradius 40.1175
lwrist 57.8807
lhand -1.96094 0.145949
lfingers 7.12502
lthumb 23.7109 28.7034
rfemur -95.8505 4.41992 -0.550047
rtibia 28.2192
rfoot 0.405158 -19.1361
rtoes 7.92297
lfemur 0 0 0
ltibia 0
lfoot 0 0
ltoes 0
258
root 3.60525 15.5866 31.293 29.4474 -85.5499 41.5526
lowerback 9.56594 4.26906 3.12179
upperback 8.32752 5.22575 4.4705
thorax 3.21532 2.41474 2.5472
lowerneck -13.5513 8.50528 11.894
upperneck 25.8134 7.49643 1.97601
head 11.084 4.57517 -0.249905
rclavicle 6.99722e-014 -1.2921e-014
rhumerus -19.2116 60.1688 -81.8908
rradius 87.6454
rwrist -53.4921
rhand 31.3912 -11.9776
rfingers 7.12502
rthumb 54.9531 -30.1501
lclavicle 6.99722e-014 -1.2921e-014
lhumerus -40.868 -11.9691 71.3582
lradius 40.1207
lwrist 57.9165
lhand -2.01824 0.199168
lfingers 7.12502
lthumb 23.6559 28.7637
rfemur -95.7632 4.44582 -0.568063
rtibia 28.2573
rfoot 0.35603 -19.1445
rtoes 7.95012
lfemur 0 0 0
ltibia 0
lfoot 0 0
ltoes 0
259
root 3.60549 15.5892 31.2942 28.7686 -85.5628 42.1086
lowerback 9.36107 4.2714 3.09189
upperback 8.32161 5.22035 4.4712
thorax 3.31813 2.41235 2.57958
lowerneck -13.5575 8.45697 11.8864
upperneck 25.8275 7.42959 1.98374
head 11.0863 4.54583 -0.255513
rclavicle 7.31528e-014 5.1684e-015
rhumerus -19.1403 60.114 -81.8398
rradius 87.618
rwrist -53.4536
rhand 30.8417 -11.7845
rfingers 7.12502
rthumb 54.4621 -30.3052
lclavicle 7.31528e-014 5.1684e-015
lhumerus -40.8082 -12.1464 71.4775
lradius 40.1177
lwrist 57.941
lhand -2.08001 0.241716
lfingers 7.12502
lthumb 23.5967 28.8139
rfemur -95.6517 4.47292 -0.585605
rtibia 28.303
rfoot 0.296567 -19.156
rtoes 7.99501
lfemur 0 0 0
ltibia 0
lfoot 0 0
ltoes 0
260
root 3.6053 15.5919 31.2957 28.0391 -85.5733 42.6917
lowerback 9.14471 4.27262 3.06667
upperback 8.31925 5.21301 4.47076
thorax 3.4318 2.40919 2.60946
lowerneck -13.563 8.40433 11.8737
upperneck 25.8562 7.35404 2.00143
head 11.0929 4.51345 -0.257775
rclavicle -7.63333e-014 -7.44449e-014
rhumerus -19.0717 60.0584 -81.7945
rradius 87.5846
rwrist -53.421
rhand 30.3325 -11.5803
rfingers 7.12502
rthumb 54.0056 -30.4145
lclavicle -7.63333e-014 -7.44449e-014
lhumerus -40.7411 -12.3174 71.5927
lradius 40.1083
lwrist 57.95
lhand -2.13676 0.272052
lfingers 7.12502
lthumb 23.5422 28.8512
rfemur -95.5164 4.50472 -0.602964
rtibia 28.3579
rfoot 0.229104 -19.1687
rtoes 8.00965
lfemur 0 0 0
ltibia 0
lfoot 0 0
ltoes 0
261
root 3.60501 15.5946 31.2972 27.2326 -85.5814 43.3353
lowerback 8.91252 4.27269 3.03338
upperback 8.31756 5.20329 4.47103
thorax 3.55425 2.40452 2.6459
lowerneck -13.5452 8.35195 11.8336
upperneck 25.8907 7.28226 2.03947
head 11.0951 4.48254 -0.248801
rclavicle 1.27222e-014 -1.55052e-014
rhumerus -19.0013 60.0118 -81.7546
rradius 87.5452
rwrist -53.4155
rhand 29.9262 -11.405
rfingers 7.12502
rthumb 53.6406 -30.4831
lclavicle 1.27222e-014 -1.55052e-014
lhumerus -40.6686 -12.485 71.7082
lradius 40.0952
lwrist 57.9502
lhand -2.19393 0.285126
lfingers 7.12502
lthumb 23.4874 28.8713
rfemur -95.3672 4.54029 -0.62185
rtibia 28.422
rfoot 0.164162 -19.1836
rtoes 7.9962
lfemur 0 0 0
ltibia 0
lfoot 0 0
ltoes 0
